<?xml version="1.0" standalone="no"?>
<!DOCTYPE svg PUBLIC "-//W3C//DTD SVG 20010904//EN"
 "http://www.w3.org/TR/2001/REC-SVG-20010904/DTD/svg10.dtd">
<svg version="1.0" xmlns="http://www.w3.org/2000/svg"
 width="300.000000pt" height="274.000000pt" viewBox="0 0 300.000000 274.000000"
 preserveAspectRatio="xMidYMid meet">
<metadata>
Created by potrace 1.10, written by Peter Selinger 2001-2011
</metadata>
<g transform="translate(0.000000,274.000000) scale(0.100000,-0.100000)"
fill="#000000" stroke="none">
<path d="M1440 2621 c-8 -5 -48 -12 -89 -15 -40 -4 -83 -11 -95 -16 -28 -12
-11 -12 55 -1 107 18 179 22 179 8 0 -8 -23 -13 -73 -14 -137 -4 -350 -65
-430 -124 -20 -14 -32 -18 -39 -11 -13 13 -1 35 15 29 7 -2 35 7 62 21 28 14
86 38 130 54 45 16 64 26 44 23 -19 -3 -73 -21 -120 -40 -46 -19 -93 -35 -105
-35 -27 0 -44 -19 -44 -48 0 -15 -7 -26 -18 -29 -23 -6 -43 -38 -36 -58 10
-25 44 -17 93 23 59 48 203 113 218 99 2 -3 -14 -24 -36 -46 -34 -34 -46 -40
-67 -35 -20 5 -26 2 -31 -15 -4 -16 -11 -20 -27 -16 -11 2 -15 2 -8 -1 21 -10
13 -20 -45 -57 -287 -177 -471 -561 -433 -903 11 -95 44 -230 62 -252 8 -9 8
-16 0 -24 -8 -8 -13 -8 -16 3 -56 174 -66 231 -66 363 0 122 12 198 46 302 67
208 197 387 370 510 35 25 64 50 64 55 0 15 -80 -40 -160 -111 -14 -12 -32
-27 -40 -34 -29 -22 -112 -130 -157 -205 -38 -62 -98 -201 -87 -201 4 0 2 -6
-4 -12 -20 -26 -53 -217 -52 -305 1 -96 10 -153 43 -282 19 -73 26 -87 53
-103 21 -12 40 -37 53 -69 24 -55 44 -68 72 -51 28 18 29 16 29 -37 0 -78 10
-92 109 -150 59 -36 87 -57 79 -62 -18 -11 18 -39 110 -87 224 -117 462 -139
697 -65 400 126 679 520 663 936 -1 48 0 89 5 91 4 3 2 3 -5 2 -10 -2 -15 -43
-20 -152 -8 -193 -36 -292 -127 -448 -125 -216 -369 -390 -613 -440 -137 -28
-418 -13 -418 22 0 10 6 12 23 7 79 -24 115 -28 222 -28 150 1 277 31 401 97
396 211 582 640 469 1081 -24 91 -107 254 -173 336 -32 41 -90 99 -128 130
-65 54 -167 120 -189 123 -5 1 -15 5 -21 8 -7 5 -9 -3 -6 -23 2 -16 13 -34 23
-40 17 -9 18 -7 9 17 -16 40 -2 42 14 2 8 -19 26 -42 40 -52 28 -18 40 -21 31
-7 -3 5 0 13 7 17 7 4 10 3 5 -1 -4 -5 5 -17 20 -27 16 -10 21 -18 14 -18 -8
0 12 -24 44 -52 32 -29 63 -52 68 -50 12 4 37 -18 37 -32 0 -6 -5 -3 -11 7 -5
9 -15 17 -20 17 -6 0 5 -21 25 -47 20 -27 50 -70 66 -98 16 -27 30 -42 30 -33
0 9 -4 20 -10 23 -5 3 -10 14 -10 23 0 9 14 -4 31 -31 18 -26 29 -50 26 -54
-4 -3 -10 5 -15 17 -5 13 -12 19 -15 13 -4 -6 2 -28 13 -51 11 -22 32 -80 47
-129 26 -85 34 -195 35 -449 0 -54 -66 -229 -83 -219 -4 3 -5 14 -2 25 3 11 9
17 14 14 5 -3 9 2 9 10 0 29 -16 16 -39 -31 -18 -38 -19 -44 -5 -32 16 13 16
12 5 -9 -7 -13 -15 -21 -19 -18 -6 6 -62 -73 -62 -88 0 -5 10 -1 22 10 l22 19
-21 -30 c-39 -55 -133 -146 -145 -139 -7 4 -8 3 -4 -4 4 -7 3 -12 -3 -12 -5 0
-11 5 -13 11 -2 7 -16 1 -33 -13 -17 -14 -53 -38 -82 -54 -32 -17 -47 -31 -40
-36 15 -9 9 -14 -33 -22 -25 -4 -31 -3 -20 4 8 5 11 10 5 10 -5 0 -17 -5 -25
-10 -10 -6 -11 -10 -2 -10 26 0 10 -19 -25 -31 -21 -7 -40 -12 -43 -12 -3 0
-16 -4 -30 -9 -72 -27 -315 -31 -387 -6 -24 9 -47 12 -55 7 -17 -11 -68 -11
-68 -1 0 5 11 14 24 20 53 24 56 37 57 324 0 190 4 270 12 277 20 16 318 74
329 63 5 -5 11 -60 14 -123 2 -63 7 -124 10 -137 6 -28 46 -46 239 -111 163
-54 238 -74 229 -60 -3 5 1 9 9 9 10 0 20 19 28 50 7 28 18 50 23 50 6 0 5 4
-2 9 -10 6 -13 54 -14 199 -2 199 3 222 42 222 70 0 146 87 108 125 -9 10
-108 34 -158 40 -25 3 -54 7 -65 9 -11 2 -90 18 -175 36 -142 29 -165 31 -270
25 -118 -7 -146 -10 -240 -25 -30 -5 -91 -12 -135 -16 -44 -3 -88 -8 -97 -10
-21 -3 -31 10 -46 62 -13 45 -29 55 -109 73 -45 9 -57 3 -82 -46 -7 -14 -21
-23 -34 -23 -32 0 -47 -18 -47 -56 0 -40 -10 -47 -85 -55 -33 -4 -67 -10 -77
-14 -11 -4 -18 -1 -21 12 -8 30 -6 -99 3 -152 l7 -50 2 47 1 47 47 -27 46 -27
1 -117 c1 -64 -2 -127 -5 -140 -6 -22 -7 -22 -19 7 -7 17 -23 57 -36 90 -13
33 -23 54 -23 47 -1 -21 57 -164 84 -207 l26 -40 -3 192 -3 193 -40 13 c-32
11 -43 21 -54 51 -8 20 -12 39 -9 41 2 3 48 10 101 17 79 10 96 15 93 28 -23
81 -17 91 37 71 20 -8 26 -20 35 -77 6 -38 9 -70 7 -72 -10 -11 -68 12 -72 29
-4 14 -12 17 -32 13 -14 -3 -48 -9 -76 -13 l-50 -7 35 -8 c19 -5 72 -21 119
-37 74 -25 86 -26 105 -14 19 13 26 12 55 -6 18 -11 31 -23 28 -26 -3 -3 -18
4 -32 15 -24 19 -55 20 -55 3 0 -15 75 -30 125 -26 120 9 171 18 193 31 19 13
22 13 22 -1 0 -13 58 -45 83 -45 6 0 -4 16 -23 35 -19 19 -40 35 -47 35 -7 0
-13 4 -13 9 0 5 15 5 34 -1 19 -6 34 -14 33 -18 -1 -4 8 -22 21 -39 19 -26 26
-30 38 -20 21 18 17 25 -23 43 -45 19 -15 14 42 -8 22 -8 32 -15 23 -16 -9 0
-20 -5 -24 -12 -5 -8 2 -9 26 -4 18 3 101 18 184 31 207 35 209 36 199 46 -6
6 -30 5 -61 -2 -29 -6 -58 -8 -65 -6 -6 3 -1 6 13 7 14 0 42 7 62 14 32 11 39
11 49 0 17 -21 35 -17 53 11 16 25 16 25 -11 25 -35 0 -101 18 -108 29 -3 5
-2 16 1 25 5 13 9 14 20 5 8 -6 23 -9 34 -6 11 3 20 2 20 -2 0 -4 15 -11 32
-16 38 -12 47 -38 22 -66 -20 -22 -19 -22 59 -5 52 10 57 14 43 26 -12 9 -20
10 -28 2 -11 -11 -38 -5 -38 9 0 5 9 9 21 9 11 0 17 5 14 10 -3 6 -16 10 -28
10 -18 0 -19 2 -7 10 11 8 7 9 -14 4 -18 -4 -27 -3 -23 3 10 15 -116 35 -147
23 -17 -6 -26 -6 -26 0 0 6 -9 10 -21 10 -11 0 -17 -4 -14 -10 3 -5 1 -10 -4
-10 -6 0 -11 5 -11 11 0 10 -31 8 -140 -6 -14 -2 -80 -9 -148 -16 l-123 -12
-15 -35 c-16 -40 -30 -38 -14 2 l10 26 -85 -2 c-74 -3 -85 -5 -85 -21 0 -10 5
-15 11 -12 12 8 169 -35 169 -46 0 -5 -15 -10 -32 -13 -18 -3 -57 -10 -87 -15
-47 -8 -63 -5 -122 17 -63 23 -69 27 -69 53 0 15 -6 30 -12 32 -8 3 -8 6 -2 6
7 1 7 24 -3 77 -8 42 -12 78 -10 81 3 2 32 -1 65 -8 l60 -13 12 -58 c8 -43 15
-58 28 -58 9 0 134 13 277 30 143 16 280 30 305 30 25 0 101 -11 170 -24 69
-13 191 -36 273 -52 83 -15 147 -32 147 -38 0 -28 -40 -74 -69 -80 -17 -3 -44
-9 -61 -12 l-30 -6 0 -242 c0 -262 -5 -286 -55 -286 -22 0 -361 112 -400 133
-11 5 -23 15 -27 21 -4 6 -8 73 -8 149 0 75 -4 137 -8 137 -4 0 -75 -13 -157
-29 -83 -16 -167 -32 -187 -35 l-38 -7 0 -284 c0 -280 0 -285 -22 -305 -12
-11 -27 -20 -33 -20 -12 0 -174 89 -310 171 l-90 54 -3 64 c-3 66 -24 113 -47
105 -13 -5 -53 50 -60 83 -2 10 -6 27 -10 38 -7 18 -6 18 9 -2 15 -20 38 -69
40 -85 1 -10 26 -34 26 -25 0 4 -14 35 -31 69 -97 191 -106 476 -23 697 30 80
88 180 147 252 24 30 43 60 41 67 -1 7 0 8 3 2 7 -16 43 18 37 35 -3 7 0 16 7
21 9 5 10 2 6 -9 -6 -16 -5 -16 18 -1 28 18 33 29 10 20 -19 -7 -19 1 0 21 9
8 28 16 43 17 43 4 76 25 93 62 9 19 14 34 11 34 -16 0 -125 -69 -182 -115
-159 -128 -280 -330 -325 -547 -20 -91 -19 -269 1 -366 18 -88 64 -210 100
-264 25 -39 30 -58 15 -58 -12 0 -76 134 -105 221 -110 330 -16 709 238 965
68 68 203 166 249 180 12 3 32 16 45 27 12 11 22 16 22 10 0 -5 24 -2 58 8 31
9 89 26 127 37 79 23 235 34 310 22 28 -4 52 -6 53 -5 10 9 -67 38 -131 50
-72 14 -167 10 -167 -7 0 -5 -5 -6 -11 -3 -6 4 -17 -1 -24 -11 -8 -11 -15 -16
-15 -11 0 4 -13 1 -30 -8 -16 -9 -30 -12 -30 -8 0 4 -5 2 -12 -5 -13 -13 -48
-16 -48 -4 0 14 107 60 169 73 114 22 228 -2 324 -68 20 -14 40 -24 43 -21 8
8 -47 45 -113 76 -53 25 -68 27 -178 27 -139 -1 -174 -12 -268 -89 -31 -25
-57 -43 -57 -38 0 11 47 55 94 86 49 33 38 33 -66 0 -90 -28 -248 -107 -261
-130 -12 -20 -27 -17 -27 6 0 11 7 20 15 20 8 0 37 14 65 30 117 69 248 111
410 130 92 11 120 11 225 -4 132 -19 241 -52 324 -97 30 -16 60 -29 67 -29 20
0 28 -21 13 -31 -9 -5 -18 -4 -24 5 -11 15 -115 69 -155 81 -43 12 -9 -11 43
-30 27 -10 62 -31 79 -47 34 -32 50 -35 68 -13 15 18 7 43 -17 51 -10 3 -54
21 -98 39 -122 50 -162 62 -278 81 -90 15 -109 21 -122 41 -16 24 -39 29 -65
14z m754 -583 l19 -33 -31 32 c-18 18 -32 38 -32 44 0 17 22 -4 44 -43z
m-1488 -100 c-1 -7 -9 -26 -18 -43 -8 -16 -21 -51 -29 -77 -7 -27 -16 -48 -19
-48 -3 0 -7 -14 -8 -31 -1 -18 -6 -37 -10 -43 -7 -12 -8 -14 -15 -166 -3 -71
-1 -126 9 -170 8 -36 16 -75 18 -87 3 -13 7 -27 11 -33 3 -5 0 -7 -9 -4 -14 5
-21 31 -44 159 -10 54 -5 218 8 280 19 93 21 99 36 135 50 116 76 164 70 128z
m1635 -238 c21 -88 19 -367 -3 -354 -6 4 -7 25 -3 53 7 45 7 202 0 251 -2 14
-13 60 -24 102 -12 43 -21 83 -20 90 0 18 34 -77 50 -142z m-633 -162 c50 -12
92 -25 92 -28 0 -4 -75 -19 -166 -35 l-167 -28 -89 29 c-49 15 -91 31 -94 35
-5 8 14 11 176 33 136 19 145 19 248 -6z"/>
<path d="M1710 2504 c25 -14 59 -38 75 -53 17 -15 46 -34 65 -41 19 -7 65 -31
102 -52 199 -117 355 -317 432 -553 30 -91 30 -95 13 -95 -7 0 -17 25 -24 62
-13 66 -83 220 -134 294 -48 71 -157 181 -224 229 -69 49 -185 109 -185 96 0
-5 14 -14 32 -22 66 -27 186 -114 259 -188 123 -125 219 -301 250 -461 15 -75
19 -83 39 -70 13 8 13 11 1 19 -11 7 -11 12 2 31 13 19 13 27 -5 83 -10 34
-21 70 -23 81 -2 10 -11 28 -18 40 -8 11 -17 33 -21 49 -3 15 -11 27 -16 27
-6 0 -10 8 -10 18 0 26 -119 179 -189 244 -75 69 -186 150 -195 141 -3 -4 -6
-2 -6 4 0 6 -14 16 -32 22 -48 17 -124 64 -110 69 25 8 10 20 -46 36 -79 22
-85 20 -32 -10z"/>
<path d="M1595 2455 c17 -8 38 -14 47 -15 9 0 18 -4 20 -8 11 -26 101 -94 127
-96 16 -1 28 2 25 6 -3 4 -16 8 -30 8 -33 0 -31 18 4 22 21 2 12 8 -46 28 -41
14 -68 26 -60 28 7 1 40 -7 72 -18 66 -22 90 -19 32 5 -37 16 -193 55 -211 54
-5 0 4 -7 20 -14z"/>
<path d="M1531 2429 l20 -20 -32 -30 c-39 -36 -62 -32 -57 12 4 45 -15 47 -31
3 -12 -33 -14 -34 -30 -20 -16 15 -21 15 -49 0 -33 -16 -42 -39 -20 -46 7 -3
17 4 23 15 17 35 42 29 59 -15 18 -44 14 -58 -15 -58 -14 0 -19 -7 -19 -27 0
-16 -3 -38 -6 -50 -4 -13 -2 -23 3 -23 5 0 10 15 11 33 2 21 11 38 27 50 19
14 25 29 27 60 1 33 3 28 8 -23 l7 -65 1 52 c3 67 21 81 23 16 2 -34 3 -39 6
-18 3 17 11 33 18 37 8 5 11 17 7 30 -5 22 -5 22 21 5 27 -17 52 -23 44 -9 -3
4 1 13 8 19 11 10 16 7 26 -17 10 -21 17 -26 26 -18 15 12 -1 49 -20 45 -7 -1
-11 6 -9 18 2 11 5 24 5 29 1 6 -13 9 -31 9 -20 0 -36 5 -39 13 -3 8 -11 14
-19 14 -10 0 -8 -6 7 -21z m54 -50 c0 -20 -29 -17 -33 3 -2 11 3 16 15 14 10
-2 18 -9 18 -17z"/>
<path d="M1222 2402 c-39 -13 -58 -25 -74 -50 l-21 -33 29 7 c16 4 49 25 74
47 25 22 47 42 49 44 7 5 0 3 -57 -15z"/>
<path d="M1134 2372 c-16 -12 -46 -63 -40 -70 3 -3 7 -3 9 -1 1 2 13 19 25 37
23 33 26 48 6 34z"/>
<path d="M1133 2300 c-18 -11 -33 -16 -33 -12 -1 4 -9 -3 -19 -15 -10 -12 -21
-20 -24 -16 -15 14 -162 -110 -227 -192 -85 -106 -181 -315 -179 -387 0 -13 9
9 19 48 43 158 142 325 249 418 l22 20 -4 -40 c-6 -48 20 -104 63 -134 18 -13
29 -28 26 -36 -3 -8 -1 -14 3 -14 5 0 12 6 14 13 4 9 6 9 6 -1 1 -7 6 -10 11
-7 6 3 10 1 10 -4 0 -6 -4 -11 -10 -11 -5 0 -10 -5 -10 -11 0 -8 4 -8 15 1 8
6 18 9 24 6 5 -3 11 0 14 6 2 8 -20 26 -52 43 -64 34 -101 83 -101 132 0 27
10 43 53 86 28 28 57 52 62 52 36 2 94 31 104 51 13 29 6 30 -36 4z"/>
<path d="M1637 2307 c-9 -24 8 -40 30 -28 11 5 23 7 27 4 3 -3 6 -1 6 5 0 12
-31 32 -48 32 -6 0 -12 -6 -15 -13z"/>
<path d="M1806 2304 c-9 -23 -9 -22 31 -39 44 -19 57 -10 23 15 -14 11 -26 15
-28 10 -7 -19 -20 -10 -15 10 6 24 -2 27 -11 4z"/>
<path d="M1580 2304 c0 -4 7 -15 15 -24 14 -15 14 -19 -2 -31 -15 -12 -16 -12
-10 4 7 19 0 22 -22 8 -8 -5 -11 -16 -8 -24 3 -9 1 -17 -5 -19 -5 -2 -10 -20
-10 -41 0 -20 -4 -37 -9 -37 -5 0 -9 -4 -9 -10 0 -5 7 -10 15 -10 8 0 15 -4
15 -10 0 -10 -18 -14 -59 -10 -13 1 -26 -2 -30 -7 -3 -5 -21 -20 -40 -33 -25
-18 -33 -20 -29 -8 5 11 0 18 -14 21 -11 3 -17 10 -13 16 3 6 1 11 -4 11 -6 0
-11 -4 -11 -10 0 -18 -59 -11 -80 10 -22 22 -11 27 20 8 24 -15 37 -4 20 17
-8 10 -9 15 -1 15 18 0 13 18 -6 23 -14 4 -13 5 4 6 15 1 25 9 29 26 3 14 12
25 20 25 8 0 14 9 14 20 0 17 -3 19 -20 10 -28 -15 -70 -74 -70 -98 0 -12 -4
-22 -10 -22 -5 0 -10 7 -10 15 0 23 -42 12 -51 -13 -5 -12 -4 -24 1 -27 6 -4
10 -1 10 4 0 6 4 11 10 11 5 0 7 -7 4 -15 -4 -8 -1 -15 5 -15 6 0 11 -6 11
-13 0 -16 38 -49 42 -36 4 13 57 19 64 7 3 -5 16 -13 28 -18 16 -6 26 -2 41
16 11 12 29 24 40 26 11 2 24 8 28 13 6 7 10 6 13 -2 3 -7 12 -9 20 -6 10 4
14 -4 14 -31 0 -20 5 -36 11 -36 6 0 9 7 6 15 -4 8 -1 17 5 21 6 4 8 25 5 55
-3 27 -2 51 4 54 5 4 6 17 3 31 -5 20 -2 26 15 31 11 3 21 11 21 18 0 7 6 16
13 19 8 3 6 9 -8 21 -11 9 -19 19 -17 23 2 3 -1 8 -7 10 -6 2 -11 0 -11 -4z"/>
<path d="M720 2260 c-19 -45 -35 -55 -67 -41 -22 10 -29 9 -48 -9 -13 -12 -22
-33 -23 -53 -1 -29 0 -30 11 -12 6 11 12 26 13 34 3 17 25 32 36 25 14 -9 9
-44 -6 -44 -35 0 -155 -244 -192 -386 -26 -104 -45 -262 -32 -270 16 -10 8
-44 -11 -44 -21 0 -36 26 -21 35 6 4 10 18 10 33 l0 27 -15 -29 c-25 -48 -14
-86 26 -86 18 0 22 -11 34 -100 28 -187 104 -357 234 -520 50 -61 62 -73 150
-144 124 -100 318 -189 471 -216 73 -13 261 -16 330 -6 58 9 169 35 195 45
230 92 414 238 539 426 88 135 135 261 155 425 6 47 16 87 22 89 6 2 22 13 36
25 22 19 23 24 12 49 -7 15 -16 27 -21 27 -11 0 -10 -28 2 -35 17 -11 11 -35
-9 -35 -26 0 -36 17 -20 36 22 27 -12 253 -59 384 -31 90 -96 220 -109 220
-19 0 -26 19 -13 35 15 18 40 8 40 -16 0 -20 36 -99 45 -99 3 0 -1 13 -10 30
-8 16 -15 42 -15 58 0 37 -22 56 -54 48 -35 -9 -41 -35 -15 -69 18 -24 20 -34
10 -48 -15 -26 -14 -44 5 -60 35 -29 87 -177 113 -325 42 -235 -32 -551 -174
-744 -54 -73 -172 -193 -225 -230 -19 -13 -37 -27 -40 -31 -9 -12 -161 -90
-213 -109 -29 -10 -77 -24 -107 -30 -30 -7 -68 -16 -84 -21 -46 -14 -253 -10
-336 6 -260 50 -487 197 -640 415 -71 100 -145 273 -165 385 -12 61 -16 330
-6 362 5 15 14 53 21 83 26 120 86 255 146 332 24 31 44 61 44 67 0 6 5 11 10
11 6 0 16 11 22 25 6 14 16 25 23 25 27 0 48 27 41 53 -9 39 -49 37 -66 -3z
m58 2 c2 -7 -5 -15 -16 -20 -37 -13 -132 -146 -192 -267 -86 -174 -115 -296
-113 -480 0 -117 5 -157 27 -240 48 -185 145 -355 275 -485 213 -213 508 -317
810 -289 184 17 358 85 509 198 195 148 318 331 384 571 20 74 23 108 23 260
-1 149 -4 187 -23 256 -26 97 -75 219 -96 243 -17 18 -12 31 11 31 7 0 13 -8
13 -18 0 -10 11 -42 25 -70 120 -249 123 -609 7 -872 -124 -279 -375 -497
-677 -586 -128 -37 -339 -45 -475 -16 -354 73 -638 317 -768 657 -43 113 -62
227 -62 369 0 257 79 475 250 693 62 79 79 91 88 65z"/>
<path d="M1680 2269 c0 -6 -4 -8 -9 -5 -5 3 -14 -1 -21 -9 -10 -12 -9 -15 6
-15 18 1 75 28 64 30 -30 7 -40 7 -40 -1z"/>
<path d="M1095 2236 c-28 -12 -67 -39 -88 -58 -31 -30 -37 -42 -37 -76 0 -35
6 -45 45 -80 38 -33 143 -86 153 -77 2 2 -3 16 -11 32 -35 67 -41 198 -12 266
9 21 11 21 -50 -7z m5 -99 c0 -39 4 -88 10 -106 5 -19 8 -37 5 -39 -10 -11
-59 11 -91 41 -56 51 -45 124 23 160 50 26 53 23 53 -56z"/>
<path d="M1815 2223 c7 -21 16 -72 20 -114 6 -69 4 -78 -13 -90 -10 -8 -24
-29 -30 -46 l-11 -33 31 13 c37 15 67 85 57 132 -4 17 -7 51 -8 78 -1 36 3 47
14 47 8 0 15 -4 15 -8 0 -5 11 -14 26 -20 29 -14 57 -72 47 -99 -12 -34 -35
-53 -58 -47 -19 5 -25 0 -34 -27 -14 -41 -14 -44 4 -29 8 7 15 21 15 31 0 11
5 19 11 19 6 0 8 -9 3 -22 l-6 -21 28 22 c54 42 70 104 39 148 -18 25 -108 87
-141 97 -21 6 -21 5 -9 -31z"/>
<path d="M1890 2254 c0 -3 25 -29 55 -58 46 -43 55 -57 55 -86 0 -44 -31 -96
-71 -118 -18 -10 -43 -40 -61 -74 -59 -111 -175 -200 -297 -228 -52 -12 -175
-10 -216 5 -20 7 -20 7 0 -6 11 -7 61 -15 111 -17 77 -4 101 -1 150 18 81 30
177 101 231 171 25 32 50 56 54 53 5 -3 9 0 9 5 0 6 -5 11 -11 11 -6 0 -3 7 6
17 14 14 18 14 27 2 8 -11 9 -11 5 2 -3 10 8 29 29 50 38 37 59 88 50 125 -8
31 2 30 40 -4 75 -65 163 -214 211 -357 13 -38 21 -55 18 -36 -9 57 -70 196
-118 268 -64 96 -117 154 -195 212 -64 48 -82 58 -82 45z"/>
<path d="M1695 2230 c-14 -6 -16 -9 -5 -10 8 -2 18 -2 23 -1 4 0 7 -4 7 -9 0
-6 8 -5 21 2 17 11 22 10 35 -7 8 -11 13 -28 10 -38 -2 -9 0 -15 5 -11 5 3 9
-2 9 -11 0 -9 -4 -13 -10 -10 -11 7 -18 -19 -22 -82 -5 -63 9 -53 17 12 4 30
11 52 16 49 14 -8 11 33 -5 71 -21 49 -56 64 -101 45z"/>
<path d="M1165 2084 c10 -80 29 -130 49 -126 9 2 16 -2 16 -8 0 -5 -6 -10 -12
-10 -31 -1 21 -18 72 -24 50 -6 53 -5 37 8 -11 8 -25 12 -33 9 -8 -3 -14 -2
-13 3 4 26 -2 36 -21 31 -21 -5 -46 24 -32 38 4 4 0 5 -8 3 -9 -1 -17 1 -18 7
-1 5 10 9 26 9 22 0 26 -4 24 -22 -4 -27 14 -29 28 -2 8 14 8 20 0 20 -6 0
-24 14 -41 31 -25 26 -33 29 -40 18 -8 -12 -9 -11 -8 1 3 18 -18 70 -27 70 -3
0 -3 -25 1 -56z"/>
<path d="M1638 2064 c2 -13 8 -22 12 -19 5 3 11 -3 13 -12 3 -12 5 -10 6 7 1
15 -7 30 -17 37 -17 10 -18 8 -14 -13z"/>
<path d="M1576 2050 c-9 -35 -20 -156 -12 -149 3 3 7 24 10 46 2 22 9 49 15
59 10 16 12 13 7 -19 -3 -22 -1 -35 5 -32 5 4 10 16 10 28 1 18 2 19 6 4 4
-15 7 -16 19 -6 18 15 37 -1 29 -24 -5 -10 -15 -14 -33 -11 l-27 4 25 -16 c14
-8 17 -13 8 -10 -10 3 -20 1 -23 -4 -4 -6 7 -10 24 -10 37 0 41 7 47 78 3 43
2 52 -5 35 -17 -38 -54 -24 -87 32 -10 18 -11 17 -18 -5z"/>
<path d="M1429 2034 c-11 -14 -10 -18 6 -30 10 -8 24 -14 30 -14 21 0 47 -38
42 -62 l-4 -23 -2 23 c-1 28 -21 20 -21 -9 0 -12 7 -19 19 -19 14 0 20 9 23
35 2 19 0 35 -4 35 -4 0 -8 10 -8 21 0 17 -5 20 -25 17 -13 -3 -22 -2 -20 3 3
4 1 10 -5 14 -6 4 -8 11 -5 16 10 16 -12 10 -26 -7z"/>
<path d="M1538 1964 c-5 -4 -8 -21 -8 -38 0 -21 3 -27 11 -19 6 6 9 23 7 38
-2 15 -6 23 -10 19z"/>
<path d="M1855 1952 c-6 -4 -16 -20 -23 -35 -34 -78 -139 -165 -226 -188 -23
-5 -49 -12 -58 -15 -10 -3 -18 -1 -18 5 0 6 9 11 21 11 27 0 119 40 119 52 0
5 4 7 9 4 5 -3 12 1 15 10 3 8 10 13 15 10 11 -7 81 61 104 103 l19 32 -29 -7
c-15 -4 -47 -29 -71 -55 -53 -59 -147 -108 -224 -116 -76 -8 -176 24 -245 77
-52 39 -53 39 -53 16 0 -27 26 -59 41 -50 5 3 8 0 7 -8 -2 -7 5 -12 14 -12 10
1 16 -2 13 -6 -10 -16 109 -52 171 -54 34 0 59 -5 57 -10 -9 -13 -133 0 -183
20 -25 9 -62 30 -83 46 -21 16 -43 28 -49 26 -19 -7 102 -77 161 -94 86 -26
221 -16 297 21 69 34 155 112 191 173 25 42 27 58 8 44z"/>
<path d="M1114 1915 c5 -18 3 -25 -4 -20 -7 4 -9 -3 -5 -22 12 -54 27 -83 44
-83 9 0 43 -18 76 -40 33 -22 64 -40 69 -40 4 0 -19 18 -53 41 -33 22 -61 45
-61 50 0 5 -11 9 -24 9 -21 0 -24 6 -28 39 -5 54 -1 61 35 61 38 0 25 15 -22
25 -33 7 -34 6 -27 -20z"/>
<path d="M1252 1891 c14 -12 34 -18 53 -15 17 2 25 0 17 -4 -9 -6 -5 -15 14
-33 l26 -24 -7 35 c-9 45 -11 46 -73 53 -53 6 -53 6 -30 -12z"/>
<path d="M1963 1898 c-11 -5 -29 -26 -40 -45 l-18 -34 28 -25 c36 -31 124 -35
150 -6 29 32 21 66 -21 96 -40 28 -64 31 -99 14z m97 -38 c29 -24 33 -32 24
-47 -8 -13 -26 -19 -68 -21 -86 -5 -113 30 -58 75 36 30 60 28 102 -7z"/>
<path d="M1972 1855 c-12 -14 -22 -30 -22 -35 0 -6 27 -10 60 -10 47 0 60 3
60 15 0 8 -7 15 -15 15 -8 0 -19 9 -25 20 -14 27 -32 25 -58 -5z"/>
<path d="M1140 1860 c0 -38 2 -40 30 -40 28 0 30 2 29 38 0 20 -3 31 -6 25 -2
-7 -14 -13 -26 -13 -22 1 -22 1 -3 15 19 15 19 15 -2 15 -19 0 -22 -6 -22 -40z
m50 -15 c0 -8 -9 -15 -20 -15 -11 0 -20 7 -20 15 0 8 9 15 20 15 11 0 20 -7
20 -15z"/>
<path d="M1614 1892 c-6 -4 -16 -16 -23 -27 -11 -19 -12 -19 -6 3 5 18 2 22
-14 22 -12 0 -21 -4 -21 -9 0 -5 -3 -18 -6 -28 -3 -11 1 -8 11 7 16 24 16 24
12 2 -3 -12 -1 -20 4 -16 5 3 9 0 9 -7 0 -7 8 -5 20 6 11 10 20 24 20 32 0 7
4 13 9 13 5 0 7 -8 4 -18 -6 -23 31 -27 49 -4 9 11 10 14 1 8 -8 -4 -13 -1
-13 8 0 17 -36 22 -56 8z"/>
<path d="M1437 1853 c-20 -27 -24 -40 -16 -50 12 -14 29 -9 29 8 0 6 -4 7 -10
4 -6 -3 -7 1 -3 10 4 12 8 13 13 5 5 -7 10 -1 14 16 6 22 9 25 17 13 7 -11 9
-10 10 6 0 20 0 20 9 0 6 -13 9 -15 9 -5 1 12 3 12 10 2 7 -11 10 -10 15 3 3
9 6 18 6 19 0 1 -17 3 -38 4 -34 2 -41 -2 -65 -35z"/>
<path d="M2430 1616 c0 -106 -12 -258 -24 -315 -84 -382 -393 -681 -776 -751
-36 -7 -114 -12 -174 -11 -136 0 -287 36 -396 92 -130 68 -139 74 -142 89 -2
9 -6 11 -10 5 -10 -17 14 -38 77 -69 33 -16 76 -39 95 -50 44 -26 153 -63 216
-73 47 -7 272 -10 324 -4 26 3 124 29 150 39 8 3 20 6 26 7 6 0 18 5 25 11 8
6 35 19 61 29 26 10 53 24 59 31 6 8 16 14 21 14 11 0 80 48 123 85 68 59 103
95 150 156 27 35 54 67 60 71 5 4 6 8 2 8 -5 0 1 12 11 28 79 110 134 322 133
511 -1 52 -3 97 -6 99 -3 3 -5 2 -5 -2z"/>
<path d="M2009 1547 c21 -23 31 -26 95 -26 54 0 67 3 53 11 -10 5 -27 8 -38 5
-10 -3 -19 -2 -19 3 0 4 -18 10 -39 14 -22 3 -48 9 -58 13 -15 5 -14 2 6 -20z"/>
<path d="M2155 1498 c-22 -5 -65 -11 -95 -14 -61 -6 -104 -23 -59 -24 15 0 50
4 78 10 37 7 59 6 73 -1 16 -9 25 -6 46 13 15 12 20 15 13 6 -7 -10 -9 -18 -4
-18 10 0 33 21 33 30 0 9 -41 8 -85 -2z"/>
<path d="M700 1484 c-9 -10 -4 -16 25 -28 20 -9 39 -15 43 -14 4 1 14 -2 23
-6 9 -4 36 -6 60 -4 l44 3 -58 20 c-40 13 -60 16 -65 9 -4 -7 -15 -8 -27 -3
-18 7 -18 8 -2 8 10 1 16 5 13 10 -10 16 -45 19 -56 5z"/>
<path d="M1905 1459 c-88 -14 -200 -42 -189 -46 6 -2 62 5 124 17 63 11 117
20 122 20 4 0 8 5 8 10 0 6 -3 9 -7 9 -5 -1 -30 -5 -58 -10z"/>
<path d="M2065 1459 c-172 -31 -333 -59 -353 -62 -12 -2 -28 -9 -35 -16 -10
-10 -7 -11 13 -7 34 8 343 63 402 71 26 4 45 11 42 16 -3 5 -8 8 -12 8 -4 -1
-29 -5 -57 -10z"/>
<path d="M2071 1333 c0 -57 2 -103 7 -103 4 0 6 37 4 83 -4 125 -9 134 -11 20z"/>
<path d="M875 1400 c61 -24 58 -24 45 0 -8 15 -21 20 -53 20 l-42 -1 50 -19z"/>
<path d="M930 1400 c14 -26 50 -46 59 -31 5 7 30 1 76 -18 102 -41 115 -44
115 -29 0 14 -123 63 -152 60 -10 0 -18 3 -18 7 0 7 -66 31 -84 31 -4 0 -2 -9
4 -20z"/>
<path d="M1216 1404 c-22 -12 -30 -13 -36 -4 -6 9 -20 10 -56 3 l-49 -10 59
-18 c64 -19 78 -16 104 23 17 26 16 26 -22 6z"/>
<path d="M1256 1391 l-25 -26 64 9 c36 6 65 13 65 16 0 3 -18 11 -40 16 -36
10 -41 9 -64 -15z"/>
<path d="M1659 1416 c-2 -2 -65 -14 -139 -26 -147 -24 -166 -28 -158 -36 3 -3
56 4 118 16 62 12 114 19 117 16 5 -4 -61 -19 -147 -32 -25 -3 -61 -12 -80
-19 -19 -7 -68 -18 -108 -25 -39 -6 -72 -16 -72 -22 0 -5 8 -7 18 -4 9 3 105
21 212 41 240 45 226 41 209 62 -13 15 -12 15 8 2 20 -12 25 -11 45 9 22 22
22 22 2 22 -11 0 -23 -2 -25 -4z"/>
<path d="M1990 1378 c-16 -22 -30 -45 -30 -50 0 -20 21 -4 54 42 25 35 31 50
21 50 -8 0 -28 -19 -45 -42z"/>
<path d="M786 1393 c6 -27 14 -177 15 -273 0 -65 2 -81 10 -67 6 11 8 32 5 48
-3 16 -2 29 2 29 4 0 6 20 4 45 -2 25 -9 45 -15 45 -6 0 -8 3 -5 6 4 3 16 1
27 -6 17 -8 21 -8 21 4 0 8 -9 17 -19 21 -19 6 -29 41 -23 84 4 27 26 26 105
-8 45 -19 47 -22 47 -61 0 -40 12 -52 27 -27 4 6 6 22 4 34 -2 18 1 22 16 16
10 -4 21 -10 24 -15 3 -5 14 -6 23 -2 19 7 -94 59 -200 92 -35 10 -54 22 -54
32 0 13 2 13 10 0 5 -8 12 -11 17 -7 4 5 1 12 -7 17 -24 15 -39 12 -34 -7z"/>
<path d="M1865 1387 c-60 -11 -112 -22 -114 -24 -3 -2 3 -11 12 -20 9 -10 17
-12 17 -6 0 14 93 37 120 30 11 -3 20 -1 20 4 0 5 5 9 11 9 6 0 8 -9 3 -22
l-7 -23 23 20 c24 22 45 56 33 54 -4 -1 -57 -10 -118 -22z"/>
<path d="M845 1382 c14 -16 245 -101 250 -93 3 6 -101 47 -249 100 -8 2 -8 0
-1 -7z"/>
<path d="M2025 1361 c-11 -23 -12 -36 -5 -57 8 -21 7 -31 -7 -46 -16 -18 -16
-19 2 -12 15 6 17 4 12 -10 -4 -10 -1 -27 7 -37 12 -18 14 -7 12 85 0 58 -2
106 -3 106 -1 0 -9 -13 -18 -29z"/>
<path d="M1256 1346 c-34 -6 -61 -17 -64 -25 -3 -10 2 -12 19 -8 13 3 47 9 74
13 60 8 72 14 54 25 -8 5 -16 8 -19 8 -3 -1 -32 -6 -64 -13z"/>
<path d="M1663 1353 c-23 -4 -23 -7 -23 -150 l0 -146 28 39 c36 50 46 75 26
67 -7 -3 -14 -14 -14 -24 0 -10 -4 -19 -10 -19 -6 0 -10 40 -10 99 0 108 2
110 68 111 35 0 21 25 -14 26 -16 1 -39 0 -51 -3z"/>
<path d="M1070 1331 c0 -9 110 -50 110 -41 0 4 -25 16 -55 27 -30 12 -55 18
-55 14z"/>
<path d="M2302 1293 c-6 -27 -13 -57 -16 -68 -4 -11 0 -8 7 8 7 15 15 25 18
23 2 -2 5 16 6 40 1 24 0 44 -1 44 -1 0 -8 -21 -14 -47z"/>
<path d="M1930 1300 c-8 -4 -26 -13 -40 -19 -22 -9 -20 -10 15 -5 40 6 87 35
55 33 -8 0 -22 -4 -30 -9z"/>
<path d="M1094 1277 c-17 -10 -17 -12 11 -17 28 -5 30 -8 29 -52 0 -39 2 -45
13 -36 9 7 13 27 11 56 -3 50 -28 69 -64 49z"/>
<path d="M1180 1241 c0 -17 5 -33 10 -36 6 -3 10 -12 10 -18 0 -7 -4 -6 -10 3
-7 11 -10 4 -10 -26 0 -23 6 -47 14 -53 12 -10 14 2 15 74 0 68 -3 85 -14 85
-10 0 -15 -10 -15 -29z"/>
<path d="M860 1195 c0 -32 2 -35 15 -21 8 8 15 19 15 25 0 20 15 11 39 -24 13
-19 28 -35 33 -35 5 0 7 -4 4 -9 -3 -5 1 -12 10 -15 12 -5 11 1 -5 28 -22 36
-27 51 -12 42 5 -3 14 1 21 9 14 17 3 20 -19 6 -9 -6 -22 -4 -35 4 -12 7 -31
16 -43 20 -21 6 -23 3 -23 -30z"/>
<path d="M2072 1121 c0 -55 4 -101 10 -101 8 0 1 189 -8 199 -2 2 -3 -42 -2
-98z"/>
<path d="M2010 1188 c0 -10 4 -18 8 -18 5 0 10 -43 11 -96 1 -70 -1 -94 -9
-89 -7 4 -4 -8 6 -26 16 -31 16 -33 0 -20 -12 10 -20 11 -27 4 -13 -13 24 -28
41 -18 6 4 10 53 10 118 0 96 -3 116 -20 137 -16 20 -20 22 -20 8z"/>
<path d="M1138 1138 c-17 -28 -12 -78 8 -78 10 0 14 13 14 50 0 28 -2 50 -4
50 -2 0 -10 -10 -18 -22z"/>
<path d="M1180 1078 c0 -19 6 -40 13 -47 10 -11 10 -13 0 -7 -20 11 -18 -217
2 -234 12 -10 14 8 14 144 -1 120 -4 158 -15 167 -12 9 -14 5 -14 -23z"/>
<path d="M881 1073 c0 -12 -6 -23 -12 -25 -6 -2 -9 -13 -7 -23 4 -19 5 -19 17
3 7 13 10 33 8 45 l-4 22 -2 -22z"/>
<path d="M1728 1072 c-31 -6 -20 -16 41 -39 51 -18 60 -19 65 -6 9 22 9 22
-28 16 -25 -4 -37 -1 -47 14 -8 10 -22 17 -31 15z"/>
<path d="M1076 1061 c-3 -5 15 -26 40 -46 l45 -38 -3 33 c-3 34 -28 56 -28 25
0 -13 -4 -14 -20 -5 -11 6 -17 16 -14 25 7 16 -11 21 -20 6z"/>
<path d="M1666 1052 c-2 -4 32 -20 76 -35 45 -14 77 -22 72 -18 -5 5 -34 16
-64 26 -30 10 -60 22 -67 27 -6 5 -14 5 -17 0z"/>
<path d="M1850 1017 c0 -14 136 -64 146 -54 7 7 -39 27 -61 27 -8 0 -30 9 -50
20 -24 14 -35 16 -35 7z"/>
<path d="M875 1000 c-25 -27 -12 -37 15 -12 12 11 17 23 12 26 -5 3 -17 -3
-27 -14z"/>
<path d="M2070 964 c0 -27 4 -43 10 -39 6 3 10 24 10 46 0 21 -4 39 -10 39 -5
0 -10 -21 -10 -46z"/>
<path d="M799 979 c-13 -24 15 -32 35 -10 21 23 20 30 -5 28 -11 -1 -25 -9
-30 -18z"/>
<path d="M1123 975 c16 -11 18 -24 15 -74 -2 -42 1 -62 10 -66 9 -3 12 13 12
62 0 51 -4 69 -17 79 -10 7 -22 13 -28 13 -5 0 -2 -6 8 -14z"/>
<path d="M824 919 c-15 -25 -12 -37 7 -32 21 6 23 11 10 32 -7 11 -10 11 -17
0z"/>
<path d="M860 885 c0 -7 7 -16 16 -19 8 -3 13 -10 9 -15 -3 -5 0 -13 6 -17 8
-4 9 -3 5 4 -9 15 -1 15 25 1 11 -5 17 -14 14 -19 -3 -5 5 -14 17 -20 22 -11
22 -10 4 4 -27 22 -13 20 34 -4 38 -20 56 -38 25 -26 -22 8 -18 -2 6 -15 15
-8 19 -8 15 0 -9 14 0 14 25 0 11 -5 17 -14 14 -19 -3 -5 3 -14 13 -19 16 -8
19 -7 17 7 -3 33 -17 52 -40 52 -12 0 -35 12 -51 27 -16 15 -34 26 -40 25 -6
-1 -35 13 -63 32 -32 22 -51 30 -51 21z"/>
<path d="M1130 815 c10 -11 9 -18 -4 -30 -14 -15 -14 -20 7 -58 l22 -42 3 64
c2 45 -1 67 -10 72 -21 14 -31 10 -18 -6z"/>
<path d="M1180 736 c0 -51 2 -57 15 -46 18 15 20 50 3 50 -9 0 -8 3 2 10 13 8
13 11 -2 27 -17 16 -18 15 -18 -41z"/>
<path d="M635 364 c-15 -7 -27 -9 -30 -3 -4 5 -37 9 -75 9 -62 0 -71 -3 -89
-26 -11 -14 -22 -30 -25 -37 -3 -7 -17 3 -36 26 -32 37 -68 48 -99 28 -18 -12
-10 -60 24 -141 35 -83 59 -110 100 -110 35 0 58 20 74 63 13 33 31 36 31 4 0
-53 64 -89 98 -55 9 9 15 9 24 0 16 -16 59 -15 82 3 16 12 21 12 40 0 23 -17
72 -20 81 -5 4 6 -7 10 -27 10 -26 0 -37 6 -50 30 -11 20 -25 30 -41 30 -20 0
-23 -4 -19 -30 4 -28 2 -30 -27 -30 l-31 0 0 111 0 111 76 -4 c65 -3 79 -7 95
-27 25 -30 24 -76 -1 -101 l-21 -21 21 -29 c29 -41 52 -41 30 -1 -13 24 9 83
30 79 10 -2 15 -18 16 -58 2 -58 19 -80 60 -80 31 0 41 17 51 84 10 73 28 84
35 21 10 -85 85 -130 170 -100 34 11 50 12 75 3 27 -10 38 -8 76 12 l44 23 34
-20 c28 -17 53 -21 148 -22 121 -2 141 5 141 44 0 29 -19 45 -64 52 l-36 6 0
62 c0 63 -11 83 -51 98 -24 8 -59 -29 -59 -63 0 -45 -17 -45 -40 0 -46 90
-111 85 -159 -12 -17 -34 -26 -30 -29 13 -3 43 -18 59 -53 59 -39 0 -59 -33
-59 -98 0 -77 -23 -64 -30 17 -3 37 -11 65 -19 70 -24 15 -214 24 -259 12 -28
-8 -54 -8 -85 -1 -57 12 -111 10 -142 -6z m-261 -90 l29 -76 31 76 c28 69 33
76 60 76 18 0 26 -4 23 -12 -3 -7 -24 -57 -47 -111 -38 -88 -45 -97 -69 -97
-24 1 -30 11 -73 110 l-46 110 31 0 c31 0 33 -4 61 -76z m216 -34 l0 -110 -25
0 -25 0 0 110 0 110 25 0 25 0 0 -110z m446 88 c-3 -19 -9 -22 -35 -20 l-31 3
0 -90 0 -91 -30 0 -30 0 0 91 0 91 -32 -4 c-28 -2 -34 1 -36 20 -3 22 -1 22
97 22 99 0 101 0 97 -22z m74 -51 c0 -77 9 -97 45 -97 36 0 45 20 45 97 l0 73
30 0 29 0 -3 -79 c-2 -43 -10 -88 -17 -99 -34 -54 -126 -55 -166 -3 -7 10 -12
49 -13 99 0 81 0 82 25 82 24 0 25 -2 25 -73z m360 -39 l49 -108 -30 0 c-22 0
-32 6 -39 25 -8 22 -15 25 -59 25 -44 0 -49 -3 -55 -25 -5 -20 -13 -25 -37
-25 -17 0 -29 4 -27 8 2 5 23 54 48 110 43 97 47 102 73 100 25 -3 33 -14 77
-110z m120 27 l0 -85 55 0 c52 0 55 -1 55 -25 0 -25 -1 -25 -80 -25 l-80 0 0
88 c0 48 -3 97 -6 110 -6 19 -3 22 25 22 l31 0 0 -85z"/>
<path d="M1378 260 c-14 -34 -14 -35 10 -38 33 -5 35 0 19 39 l-14 34 -15 -35z"/>
<path d="M1798 363 c-26 -28 -28 -206 -3 -233 26 -29 146 -28 194 1 l33 20 24
-22 c25 -24 46 -26 169 -19 33 1 79 -1 103 -5 32 -6 52 -3 81 10 30 13 43 14
59 6 31 -17 60 -13 74 9 16 25 23 25 50 0 23 -21 88 -28 88 -10 0 6 -13 10
-29 10 -24 0 -36 9 -62 45 -37 51 -59 47 -59 -11 0 -31 -3 -34 -29 -34 l-29 0
-1 110 -1 110 30 0 c29 0 30 -1 30 -47 l1 -48 42 47 c31 34 51 48 69 48 34 0
45 16 17 25 -22 7 -79 -12 -79 -26 0 -15 -15 -10 -40 11 -28 24 -48 25 -71 4
-17 -15 -20 -15 -43 0 -33 21 -109 21 -142 0 -23 -15 -26 -15 -43 0 -13 11
-37 16 -86 16 -61 0 -72 -3 -96 -26 l-27 -26 -32 23 c-44 33 -167 40 -192 12z
m620 -23 c2 0 2 -10 0 -22 -2 -15 -9 -21 -18 -19 -38 11 -85 6 -88 -10 -2 -12
7 -18 35 -24 56 -10 83 -31 83 -63 0 -15 -4 -32 -8 -38 -32 -49 -178 -43 -165
7 6 22 12 23 49 8 34 -12 74 -4 74 15 0 9 -20 19 -51 26 -60 15 -85 44 -70 83
5 14 15 28 22 33 24 14 74 20 104 12 16 -4 31 -8 33 -8z m-448 -5 c38 -20 50
-43 50 -98 0 -71 -53 -107 -161 -107 l-59 0 0 110 0 110 70 0 c44 0 82 -6 100
-15z m258 -7 c-3 -20 -8 -22 -60 -19 -57 2 -58 2 -58 -25 0 -26 1 -26 50 -22
47 5 50 4 50 -18 0 -22 -4 -24 -50 -24 -43 0 -50 -3 -50 -20 0 -18 7 -20 60
-20 57 0 60 -1 60 -25 0 -25 -1 -25 -85 -25 l-85 0 0 110 0 110 86 0 c82 0 85
-1 82 -22z"/>
<path d="M1860 246 l0 -66 39 0 c30 0 44 6 55 22 34 48 9 94 -58 105 l-36 6 0
-67z m68 -3 c-2 -17 -9 -28 -18 -28 -9 0 -16 11 -18 28 -3 22 1 27 18 27 17 0
21 -5 18 -27z"/>
<path d="M2628 303 l-47 -48 45 -58 c42 -52 64 -69 64 -49 0 4 -16 29 -35 56
-37 52 -37 51 8 103 40 45 10 42 -35 -4z"/>
<path d="M699 308 c0 -2 -1 -18 -2 -36 -2 -31 0 -32 34 -32 38 0 54 16 43 44
-6 16 -71 36 -75 24z"/>
</g>
</svg>
